# xmcd CD database file
#
# Track frame offsets:
#	150
#	16012
#	29094
#	36802
#	49398
#	60995
#	76156
#	94044
#	107396
#	123583
#	137543
#	155782
#	168108
#	182107
#	195297
#	211943
#	230154
#	243802
#	260232
#	271856
#	277677
#	289652
#	301574
#
# Disc length: 4146 seconds
#
# Revision: 0
# Processed by: cddbd v1.5.2PL0 Copyright (c) Steve Scherf et al.
# Submitted via: CDex 1.70beta2
#
DISCID=2d103017
DTITLE=Movida Villera - Vol. 3
DYEAR=1900
DGENRE=Salsa
TTITLE0=Rafaga - Muero de Frio
TTITLE1=18 Kilates - Me Olvide de Ti
TTITLE2=Nestor en Bloque - Una MAdre Llorando (En Vivo)
TTITLE3=El Polaco - Mi Primer Amor
TTITLE4=Blocks 66 - Hasta el Fin del Mundo
TTITLE5=El Empuje - Tu Carcel
TTITLE6=El Stylo - Mi Historia entre tus Dedos
TTITLE7=Sonido Basico - Guacho Atrevido (Remix)
TTITLE8=El Tecla - Ella ya me Olvido
TTITLE9=Blocks 66 - Ojala que no Puedas (Remix)
TTITLE10=El Polaco - Si la Ves (Remix)
TTITLE11=El Traidor y los Pibes - Mariela (Remix)
TTITLE12=El Empuje - Corta Chorro
TTITLE13=Blocks 66 - Hasta el Fin del Mundo (Remix)
TTITLE14=18 Kilates - Perdido en dos Amores
TTITLE15=El Tecla - El Baile del Gabilan
TTITLE16=Grupo Play - Desde Lejos
TTITLE17=El Stylo - Desperte sin Ti
TTITLE18=Nestor en Bloque - Gracioas Mama (En Vivo)
TTITLE19=Nestor en Bloque - Llamala (En Vivo)
TTITLE20=Nestor en Bloque - Mi Gran Amor (En Vivo)
TTITLE21=Nestor en Bloque - Un Poquito de AMor
TTITLE22=Jorgito - Carta a Papa Noel
EXTD=
EXTT0=
EXTT1=
EXTT2=
EXTT3=
EXTT4=
EXTT5=
EXTT6=
EXTT7=
EXTT8=
EXTT9=
EXTT10=
EXTT11=
EXTT12=
EXTT13=
EXTT14=
EXTT15=
EXTT16=
EXTT17=
EXTT18=
EXTT19=
EXTT20=
EXTT21=
EXTT22=
PLAYORDER=
